<svg width="69" height="68" viewBox="0 0 69 68" fill="none" xmlns="http://www.w3.org/2000/svg">
<rect width="68.7894" height="68" rx="10" fill="white"/>
<path d="M51.7111 31.241L50.0405 27.4049C49.7437 26.7216 49.2499 26.1397 48.6208 25.7319C47.9917 25.324 47.2551 25.1082 46.5028 25.1114H43.7984V24.1331C43.7979 23.7443 43.6414 23.3715 43.3632 23.0965C43.085 22.8215 42.7079 22.6668 42.3145 22.6663H23.4466C23.3164 22.6654 23.1873 22.6901 23.0668 22.7389C22.9463 22.7877 22.8369 22.8598 22.7448 22.9508C22.6527 23.0418 22.5799 23.15 22.5305 23.2691C22.481 23.3882 22.4561 23.5158 22.457 23.6445C22.4615 23.9025 22.5673 24.1488 22.7519 24.3312C22.9365 24.5137 23.1855 24.6182 23.4466 24.6227H41.7436V31.8433C41.7419 32.0562 41.783 32.2673 41.8646 32.4643C41.9463 32.6613 42.0667 32.8402 42.219 32.9908C42.3713 33.1413 42.5523 33.2604 42.7516 33.341C42.9509 33.4217 43.1644 33.4624 43.3798 33.4607H49.9639V38.0109C49.964 38.0553 49.9553 38.0993 49.9381 38.1404C49.921 38.1815 49.8958 38.2188 49.864 38.2502C49.8322 38.2816 49.7945 38.3065 49.7529 38.3235C49.7114 38.3404 49.6669 38.3491 49.6219 38.3489H48.4014C48.0806 37.8015 47.6203 37.3468 47.0663 37.0301C46.5123 36.7134 45.8839 36.5458 45.244 36.544C44.6056 36.5538 43.9804 36.7247 43.4278 37.0406C42.8752 37.3565 42.4134 37.8069 42.0865 38.3489H31.9283C31.6075 37.8015 31.1472 37.3468 30.5932 37.0301C30.0392 36.7134 29.4108 36.5458 28.7709 36.544C28.1326 36.5538 27.5074 36.7247 26.9547 37.0406C26.4021 37.3565 25.9404 37.8069 25.6134 38.3489H22.114C21.9815 38.3448 21.8495 38.367 21.7259 38.4143C21.6022 38.4616 21.4894 38.533 21.3942 38.6242C21.299 38.7154 21.2233 38.8245 21.1716 38.9452C21.1199 39.0659 21.0933 39.1956 21.0933 39.3267C21.0933 39.4577 21.1199 39.5875 21.1716 39.7081C21.2233 39.8288 21.299 39.938 21.3942 40.0292C21.4894 40.1204 21.6022 40.1918 21.7259 40.239C21.8495 40.2863 21.9815 40.3085 22.114 40.3044H25.1191C25.16 41.2348 25.5626 42.1137 26.2431 42.7578C26.9235 43.4019 27.8293 43.7614 28.7714 43.7614C29.7135 43.7614 30.6192 43.4019 31.2996 42.7578C31.9801 42.1137 32.3827 41.2348 32.4236 40.3044H41.5922C41.6331 41.2348 42.0357 42.1137 42.7162 42.7578C43.3966 43.4019 44.3024 43.7614 45.2444 43.7614C46.1865 43.7614 47.0923 43.4019 47.7727 42.7578C48.4532 42.1137 48.8558 41.2348 48.8967 40.3044H49.6956C50.3102 40.3019 50.8988 40.0594 51.3334 39.6298C51.7679 39.2003 52.0132 38.6184 52.0158 38.0109V32.7458C52.0066 32.2302 51.9034 31.7204 51.7111 31.241ZM28.7709 41.8033C28.4405 41.8033 28.1175 41.7065 27.8427 41.525C27.568 41.3435 27.3539 41.0856 27.2274 40.7839C27.101 40.4821 27.0679 40.1501 27.1324 39.8297C27.1968 39.5094 27.3559 39.2151 27.5896 38.9842C27.8232 38.7532 28.1209 38.5959 28.445 38.5322C28.769 38.4685 29.1049 38.5012 29.4102 38.6262C29.7154 38.7512 29.9764 38.9629 30.1599 39.2344C30.3435 39.506 30.4415 39.8253 30.4415 40.1519C30.4369 40.5885 30.2594 41.0059 29.9471 41.3146C29.6348 41.6233 29.2125 41.7988 28.7709 41.8033ZM45.244 41.8033C44.9135 41.8033 44.5906 41.7065 44.3158 41.525C44.0411 41.3435 43.827 41.0856 43.7005 40.7839C43.5741 40.4821 43.541 40.1501 43.6055 39.8297C43.6699 39.5094 43.829 39.2151 44.0627 38.9842C44.2963 38.7532 44.594 38.5959 44.918 38.5322C45.2421 38.4685 45.578 38.5012 45.8833 38.6262C46.1885 38.7512 46.4494 38.9629 46.633 39.2344C46.8166 39.506 46.9146 39.8253 46.9146 40.1519C46.9099 40.5885 46.7325 41.0059 46.4202 41.3146C46.1079 41.6233 45.6856 41.7988 45.244 41.8033ZM43.7601 27.0989H46.4615C46.8185 27.0945 47.1685 27.1961 47.4664 27.3906C47.7643 27.5851 47.9962 27.8635 48.1321 28.1898L49.5806 31.5062H43.7601V27.0989Z" fill="#333333"/>
<path d="M20.5924 28.7215H27.5922C27.7247 28.7256 27.8567 28.7034 27.9804 28.6561C28.104 28.6088 28.2168 28.5375 28.312 28.4463C28.4072 28.3551 28.4829 28.2459 28.5346 28.1252C28.5863 28.0045 28.613 27.8748 28.613 27.7437C28.613 27.6126 28.5863 27.4829 28.5346 27.3622C28.4829 27.2415 28.4072 27.1323 28.312 27.0411C28.2168 26.9499 28.104 26.8785 27.9804 26.8313C27.8567 26.784 27.7247 26.7617 27.5922 26.7659H20.5924C20.4622 26.765 20.3331 26.7896 20.2126 26.8385C20.0921 26.8873 19.9827 26.9594 19.8906 27.0504C19.7985 27.1414 19.7257 27.2496 19.6763 27.3687C19.6269 27.4878 19.6019 27.6154 19.6028 27.7442C19.6076 28.0021 19.7134 28.2481 19.898 28.4303C20.0826 28.6126 20.3315 28.717 20.5924 28.7215Z" fill="#333333"/>
<path d="M18.7284 32.4818H25.7282C25.8607 32.4859 25.9927 32.4637 26.1163 32.4164C26.24 32.3691 26.3528 32.2978 26.448 32.2066C26.5432 32.1154 26.6189 32.0062 26.6706 31.8855C26.7223 31.7648 26.7489 31.6351 26.7489 31.5041C26.7489 31.373 26.7223 31.2433 26.6706 31.1226C26.6189 31.0019 26.5432 30.8928 26.448 30.8016C26.3528 30.7104 26.24 30.639 26.1163 30.5917C25.9927 30.5445 25.8607 30.5222 25.7282 30.5264H18.7284C18.5982 30.5255 18.4691 30.5501 18.3486 30.599C18.2281 30.6478 18.1187 30.7198 18.0266 30.8109C17.9345 30.9019 17.8617 31.0101 17.8123 31.1292C17.7629 31.2482 17.7379 31.3758 17.7388 31.5046C17.7436 31.7624 17.8494 32.0084 18.034 32.1906C18.2186 32.3729 18.4675 32.4773 18.7284 32.4818Z" fill="#333333"/>
<path d="M24.8908 35.2649C24.8917 35.1362 24.8667 35.0086 24.8173 34.8895C24.7679 34.7704 24.695 34.6622 24.603 34.5711C24.5109 34.4801 24.4014 34.4081 24.281 34.3592C24.1605 34.3104 24.0314 34.2857 23.9012 34.2866H16.864C16.7315 34.2825 16.5995 34.3047 16.4759 34.352C16.3522 34.3993 16.2394 34.4706 16.1442 34.5619C16.049 34.6531 15.9733 34.7622 15.9216 34.8829C15.8699 35.0036 15.8433 35.1333 15.8433 35.2644C15.8433 35.3955 15.8699 35.5252 15.9216 35.6459C15.9733 35.7666 16.049 35.8758 16.1442 35.967C16.2394 36.0582 16.3522 36.1295 16.4759 36.1768C16.5995 36.2241 16.7315 36.2463 16.864 36.2422H23.8638C23.9976 36.2502 24.1315 36.2306 24.2572 36.1848C24.3828 36.139 24.4976 36.068 24.5941 35.9761C24.6906 35.8843 24.7668 35.7737 24.8178 35.6513C24.8689 35.5288 24.8937 35.3973 24.8908 35.2649Z" fill="#333333"/>
</svg>

