<svg width="68" height="68" viewBox="0 0 68 68" fill="none" xmlns="http://www.w3.org/2000/svg">
<rect width="68" height="68" rx="10" fill="white"/>
<path d="M18.9055 48.771C18.7364 48.7699 18.5729 48.7069 18.4428 48.5928C18.3126 48.4786 18.224 48.3203 18.1918 48.1448C18.1597 47.9693 18.186 47.7874 18.2664 47.6302C18.3468 47.4729 18.4763 47.35 18.6328 47.2822C18.7893 47.2145 18.9632 47.2062 19.1248 47.2587C19.2865 47.3113 19.4259 47.4214 19.5194 47.5703C19.6129 47.7193 19.6547 47.8979 19.6376 48.0757C19.6206 48.2536 19.5458 48.4197 19.4259 48.5458C19.3575 48.6178 19.2763 48.6747 19.187 48.7134C19.0977 48.752 19.002 48.7716 18.9055 48.771Z" fill="#FBB03B"/>
<path d="M22.7667 52.0002H16V50.1481H21.0156V40.6567H16V38.8057H22.7667V52.0002Z" fill="#FBB03B"/>
<path d="M33.1569 50.1105H23.925V40.7156L24.0265 40.5107C24.5954 39.456 25.4497 38.6052 26.4795 38.0676C27.4459 37.5767 28.4997 37.3074 29.5715 37.2777C30.6433 37.2479 31.709 37.4583 32.6984 37.895C33.3355 38.1703 33.9574 38.4836 34.561 38.8334C35.0571 39.1079 35.5258 39.3696 36.0107 39.5841C36.2149 39.6632 36.4241 39.7274 36.6366 39.7761C37.0776 39.8214 37.5022 39.9764 37.8757 40.2284C38.2491 40.4804 38.5608 40.8223 38.7853 41.2261C39.0218 41.8651 39.1122 42.5541 39.0491 43.237L43.4601 43.1705L45.7478 40.4893C46.1722 39.9904 46.7668 39.6902 47.4006 39.6547C48.0344 39.6192 48.6557 39.8513 49.1276 40.3C49.5995 40.7487 49.8835 41.3772 49.9171 42.0473C49.9507 42.7173 49.7311 43.374 49.3066 43.8729L45.8574 47.9387L33.1569 50.1105ZM25.6822 48.2583H33.0169L44.9677 46.2206L48.002 42.6342C48.1144 42.5003 48.172 42.3249 48.1625 42.1462C48.1529 41.9675 48.0769 41.8001 47.951 41.6804C47.8251 41.5607 47.6595 41.4986 47.4904 41.5075C47.3213 41.5164 47.1624 41.5957 47.0484 41.728L44.2494 45.0044L33.4065 45.1781L33.3811 43.3271L37.3042 43.2659C37.3576 42.8309 37.3192 42.3888 37.1916 41.9714C37.1246 41.8106 36.5413 41.6583 36.2278 41.5768C35.9253 41.5067 35.6285 41.4116 35.3401 41.2926C34.7882 41.0459 34.2648 40.7563 33.7585 40.4753C33.213 40.1585 32.6511 39.8742 32.0755 39.6238C31.3174 39.2821 30.4996 39.1137 29.6756 39.1294C28.8517 39.1451 28.0401 39.3446 27.2942 39.715C26.6459 40.055 26.0917 40.5663 25.6852 41.1993L25.6822 48.2583Z" fill="#FBB03B"/>
<path d="M51 19.1333V17.1642L45.4203 15L34.6444 20.8567H25.3445V34.6401H46.6945V30.7363C46.9847 30.747 47.2718 30.7588 47.5518 30.7803C47.7273 30.791 47.9018 30.7985 48.0773 30.7985C49.074 30.7905 50.0622 30.6041 51 30.2472V28.2685L50.9757 28.2793C49.9377 28.7709 48.8044 28.9955 47.6684 28.9345C47.3499 28.912 47.0283 28.8981 46.6955 28.8863C46.1355 28.8713 45.5583 28.8756 44.9455 28.897C44.1025 28.927 43.1986 28.9967 42.2125 29.104L41.1341 29.222C40.865 29.2612 40.5922 29.1859 40.3757 29.0125C40.1592 28.8391 40.0167 28.5819 39.9796 28.2975C39.9425 28.0131 40.0137 27.7247 40.1777 27.4958C40.3417 27.2669 40.585 27.1163 40.8541 27.077L44.9354 26.3263C44.937 26.327 44.9387 26.3274 44.9405 26.3274C44.9422 26.3274 44.9439 26.327 44.9455 26.3263C45.3037 26.2611 45.6447 26.1164 45.9462 25.9018C46.2476 25.6872 46.5027 25.4075 46.6945 25.0812C46.9424 24.6639 47.0802 24.1841 47.0934 23.6915C47.1067 23.1989 46.995 22.7116 46.7699 22.2801C46.5449 21.8486 46.2147 21.4886 45.8136 21.2376C45.4125 20.9865 44.9551 20.8535 44.489 20.8524H38.469L45.54 17.0162L51 19.1333ZM44.49 22.7067C44.6512 22.705 44.8094 22.7527 44.9455 22.844C45.069 22.9261 45.1707 23.0399 45.2412 23.1749C45.3117 23.3098 45.3487 23.4615 45.3487 23.6157C45.3487 23.7698 45.3117 23.9215 45.2412 24.0564C45.1707 24.1914 45.069 24.3052 44.9455 24.3873C44.8526 24.4487 44.7492 24.4902 44.6412 24.5096L40.5599 25.2603C39.8745 25.384 39.2581 25.7755 38.8328 26.357C38.4076 26.9386 38.2046 27.6679 38.2641 28.4003C38.3236 29.1326 38.6412 29.8146 39.154 30.3111C39.6668 30.8075 40.3373 31.0822 41.0326 31.0805C41.1262 31.081 41.2196 31.076 41.3126 31.0655C41.3126 31.0655 44.1613 30.7845 44.9496 30.7545V32.7922H27.0945V22.711L44.49 22.7067Z" fill="#FBB03B"/>
<path d="M37.0092 26.8228H35.2593V28.6729H37.0092V26.8228Z" fill="#FBB03B"/>
</svg>
